<?xml version="1.0" encoding="utf-8"?>
<!-- Generator: Adobe Illustrator 22.1.0, SVG Export Plug-In . SVG Version: 6.00 Build 0)  -->
<svg version="1.1" id="Layer_1" xmlns="http://www.w3.org/2000/svg" xmlns:xlink="http://www.w3.org/1999/xlink" x="0px" y="0px"
	 viewBox="0 0 269.1 72" style="enable-background:new 0 0 269.1 72;" xml:space="preserve">
<style type="text/css">
	.st0{fill:#FFFFFF;}
</style>
<g>
	<path class="st0" d="M14.3,0.4v56.9h28.4v14.3H0V0.4H14.3z"/>
	<path class="st0" d="M107.6,10.6c7.1,7.1,10.6,15.5,10.6,25.4s-3.5,18.4-10.6,25.4c-7.1,7-15.5,10.6-25.4,10.6s-18.4-3.5-25.4-10.6
		c-7-7-10.6-15.5-10.6-25.4s3.5-18.4,10.6-25.4C63.8,3.5,72.3,0,82.2,0S100.6,3.5,107.6,10.6z M67,20.7C62.8,25,60.6,30,60.6,36
		c0,6,2.1,11,6.3,15.2c4.2,4.2,9.3,6.3,15.2,6.3c5.9,0,11-2.1,15.2-6.3c4.2-4.2,6.4-9.3,6.4-15.2c0-5.9-2.1-11-6.4-15.2
		s-9.3-6.4-15.2-6.4C76.2,14.4,71.2,16.5,67,20.7z"/>
	<path class="st0" d="M157.7,0.1c4.9,0,9.6,0.9,14,2.8s8.2,4.5,11.5,7.7L173,20.8c-4.3-4.2-9.4-6.4-15.2-6.4c-6,0-11,2.1-15.2,6.4
		s-6.3,9.3-6.3,15.2c0,6,2.1,11,6.3,15.2c4.2,4.2,9.3,6.3,15.2,6.3c4.7,0,8.9-1.3,12.5-4c3.7-2.7,6.3-6.1,7.8-10.3h-20.4V28.9h20.4
		h8.3h6.5c0.5,2.3,0.7,4.6,0.7,7.2c0,9.9-3.5,18.4-10.6,25.4c-7.1,7-15.5,10.6-25.4,10.6s-18.4-3.5-25.4-10.6
		c-7-7-10.6-15.5-10.6-25.4s3.5-18.4,10.6-25.4c7-7.1,15.5-10.6,25.4-10.6L157.7,0.1z"/>
	<path class="st0" d="M258.5,10.6c7.1,7.1,10.6,15.5,10.6,25.4s-3.5,18.4-10.6,25.4c-7.1,7-15.5,10.6-25.4,10.6
		c-9.9,0-18.4-3.5-25.4-10.6c-7-7-10.6-15.5-10.6-25.4s3.5-18.4,10.6-25.4c7-7.1,15.5-10.6,25.4-10.6C243,0,251.5,3.5,258.5,10.6z
		 M217.8,20.7c-4.2,4.2-6.3,9.3-6.3,15.2c0,6,2.1,11,6.3,15.2c4.2,4.2,9.3,6.3,15.2,6.3c5.9,0,11-2.1,15.2-6.3
		c4.2-4.2,6.4-9.3,6.4-15.2c0-5.9-2.1-11-6.4-15.2c-4.2-4.2-9.3-6.4-15.2-6.4C227.1,14.4,222,16.5,217.8,20.7z"/>
</g>
<g>
</g>
<g>
</g>
<g>
</g>
<g>
</g>
<g>
</g>
<g>
</g>
</svg>
